<svg width="49" height="48" viewBox="0 0 49 48" fill="none" xmlns="http://www.w3.org/2000/svg">
<rect x="16.7561" y="44.561" width="9.8535" height="25.0437" rx="4.92675" transform="rotate(-116.413 16.7561 44.561)" fill="url(#paint0_linear_3099_1035)"/>
<path d="M9.24219 29.515C10.7746 29.515 12.2188 29.8901 13.4912 30.5502V32.1898C13.4914 33.5621 14.9365 34.4537 16.1631 33.8383L16.8408 33.4974C17.8763 34.9906 18.4844 36.8025 18.4844 38.7572C18.4844 43.8616 14.3466 47.9994 9.24219 47.9994C4.13785 47.9993 0 43.8616 0 38.7572C2.17528e-05 33.6529 4.13787 29.5151 9.24219 29.515Z" fill="url(#paint1_linear_3099_1035)"/>
<path d="M39.3546 14.7577C44.4589 14.7578 48.5968 18.8955 48.5968 23.9999C48.5968 29.1042 44.459 33.242 39.3546 33.2421C35.1698 33.2421 31.6361 30.4604 30.4982 26.6454L31.882 25.952C33.0747 25.3535 33.0912 23.6566 31.9103 23.035L30.2911 22.1825C31.1355 17.9484 34.8723 14.7577 39.3546 14.7577Z" fill="url(#paint2_linear_3099_1035)"/>
<rect x="12.3729" y="12.7787" width="9.94319" height="25.0437" rx="4.97159" transform="rotate(-62.6423 12.3729 12.7787)" fill="url(#paint3_linear_3099_1035)"/>
<rect x="1.49084" y="11.4783" width="11.9256" height="25.0437" rx="5.9628" fill="url(#paint4_linear_3099_1035)"/>
<path d="M9.24219 0C14.3466 0 18.4844 4.13779 18.4844 9.24219C18.4844 11.3904 17.7489 13.3651 16.5195 14.9346L16.1953 14.7646C14.9669 14.1181 13.4912 15.0093 13.4912 16.3975V17.4482C12.2188 18.1084 10.7747 18.4844 9.24219 18.4844C4.1379 18.4843 3.8145e-05 14.3465 0 9.24219C0 4.13785 4.13787 9.94766e-05 9.24219 0Z" fill="#9BD379"/>
<defs>
<linearGradient id="paint0_linear_3099_1035" x1="22.8981" y1="66.1864" x2="29.8698" y2="52.1873" gradientUnits="userSpaceOnUse">
<stop stop-color="#FFB99A"/>
<stop offset="1" stop-color="#EF4902"/>
</linearGradient>
<linearGradient id="paint1_linear_3099_1035" x1="6.33537" y1="30.3349" x2="17.9626" y2="41.2914" gradientUnits="userSpaceOnUse">
<stop stop-color="#FFB48B"/>
<stop offset="1" stop-color="#EF4902"/>
</linearGradient>
<linearGradient id="paint2_linear_3099_1035" x1="34.1372" y1="29.2918" x2="48.5968" y2="20.0495" gradientUnits="userSpaceOnUse">
<stop stop-color="#FFB48B"/>
<stop offset="1" stop-color="#EF4902"/>
</linearGradient>
<linearGradient id="paint3_linear_3099_1035" x1="16.8385" y1="15.3356" x2="17.3445" y2="37.8224" gradientUnits="userSpaceOnUse">
<stop stop-color="#9BD379"/>
<stop offset="1" stop-color="#EF4902" stop-opacity="0.3"/>
</linearGradient>
<linearGradient id="paint4_linear_3099_1035" x1="7.45364" y1="11.4783" x2="7.45364" y2="36.522" gradientUnits="userSpaceOnUse">
<stop offset="0.341653" stop-color="#9BD379"/>
<stop offset="1" stop-color="#FF5A00" stop-opacity="0.4"/>
</linearGradient>
</defs>
</svg>
